<svg viewBox="0 0 800 400" xmlns="http://www.w3.org/2000/svg">
  <rect x="50" y="100" width="710" height="200" rx="20" fill="#000" stroke="#fff" stroke-width="2"/>

  <!-- First row -->
  <rect x="100" y="130" width="60" height="60" rx="10" fill="#e3e3e3" stroke="#000" stroke-width="2"/>
  <rect x="170" y="130" width="60" height="60" rx="10" fill="#e3e3e3" stroke="#000" stroke-width="2"/>
  <rect x="240" y="130" width="60" height="60" rx="10" fill="#e3e3e3" stroke="#000" stroke-width="2"/>
  <rect x="310" y="130" width="60" height="60" rx="10" fill="#e3e3e3" stroke="#000" stroke-width="2"/>
  <rect x="380" y="130" width="60" height="60" rx="10" fill="#e3e3e3" stroke="#000" stroke-width="2"/>
  <rect x="450" y="130" width="60" height="60" rx="10" fill="#e3e3e3" stroke="#000" stroke-width="2"/>
  <rect x="520" y="130" width="60" height="60" rx="10" fill="#e3e3e3" stroke="#000" stroke-width="2"/>
  <rect x="590" y="130" width="60" height="60" rx="10" fill="#e3e3e3" stroke="#000" stroke-width="2"/>
  <rect x="660" y="130" width="60" height="60" rx="10" fill="#e3e3e3" stroke="#000" stroke-width="2"/>
 
  <!-- Second row -->
  <rect x="120" y="200" width="60" height="60" rx="10" fill="#e3e3e3" stroke="#000" stroke-width="2"/>
  <rect x="190" y="200" width="60" height="60" rx="10" fill="#e3e3e3" stroke="#000" stroke-width="2"/>
  <rect x="260" y="200" width="60" height="60" rx="10" fill="#e3e3e3" stroke="#000" stroke-width="2"/>
  <rect x="330" y="200" width="60" height="60" rx="10" fill="#e3e3e3" stroke="#000" stroke-width="2"/>
  <rect x="400" y="200" width="60" height="60" rx="10" fill="#e3e3e3" stroke="#000" stroke-width="2"/>
  <rect x="470" y="200" width="60" height="60" rx="10" fill="#e3e3e3" stroke="#000" stroke-width="2"/>
  <rect x="540" y="200" width="60" height="60" rx="10" fill="#e3e3e3" stroke="#000" stroke-width="2"/>
  <rect x="610" y="200" width="60" height="60" rx="10" fill="#e3e3e3" stroke="#000" stroke-width="2"/>
</svg>
